ffmpeg started on 2025-06-27 at 12:12:04
Report written to "D:\Convert\FFMetrics\reports\psnr_report-6.txt"
Log level: 32
Command line:
ffmpeg -hide_banner -nostdin -i "G:\\\xc0\xed\xe8\xec\xe5\\[\xd2\xee\xef]\\\xcf\xf0\xee\xe4\xe5\xeb\xea\xe8 \xd1\xe0\xea\xf3\xf0\xfb\\Bonus\\Menu\\Sakura Trick TV Menu 2_HEVC.mkv" -i "G:\\\xc0\xed\xe8\xec\xe5\\[\xd2\xee\xef]\\\xcf\xf0\xee\xe4\xe5\xeb\xea\xe8 \xd1\xe0\xea\xf3\xf0\xfb\\Bonus\\Menu\\Sakura Trick TV Menu 2.mkv" -lavfi "[0:v]settb=AVTB,setpts=PTS-STARTPTS,format=pix_fmts=yuv420p10,fps=24000/1001,scale=1920:1080:flags=bicubic[main];[1:v]settb=AVTB,setpts=PTS-STARTPTS,format=pix_fmts=yuv420p10,fps=24000/1001,scale=1920:1080:flags=bicubic[ref];[main][ref]psnr=eof_action=endall:stats_file='D\\:/Convert/FFMetrics/logs/psnr_logfile-6.txt'" -f null -
Input #0, matroska,webm, from 'G:\Аниме\[Топ]\Проделки Сакуры\Bonus\Menu\Sakura Trick TV Menu 2_HEVC.mkv':
  Metadata:
    title           : Sakura Trick TV Menu 2
    ENCODER         : Lavf61.7.100
  Duration: 00:01:40.10, start: -0.021000, bitrate: 630 kb/s
  Stream #0:0(jpn): Video: hevc (Main 10), yuv420p10le(tv, bt709, progressive), 1920x1080 [SAR 1:1 DAR 16:9], 23.98 fps, 23.98 tbr, 1k tbn (default)
      Metadata:
        title           : [VCB & Hakugetsu & DMG]
        ENCODER         : Lavc61.19.100 libx265
        BPS             : 430611
        DURATION        : 00:01:40.058708333
        NUMBER_OF_FRAMES: 2399
        NUMBER_OF_BYTES : 5385769
        _STATISTICS_WRITING_APP: mkvpropedit v66.0.0 ('Josie') 64-bit
        _STATISTICS_WRITING_DATE_UTC: 2025-06-27 08:37:14
        _STATISTICS_TAGS: BPS DURATION NUMBER_OF_FRAMES NUMBER_OF_BYTES
  Stream #0:1(jpn): Audio: aac (LC), 48000 Hz, stereo, fltp (default)
      Metadata:
        title           : [Original]
        ENCODER         : Lavc61.19.100 aac
        BPS             : 195374
        DURATION        : 00:01:40.075000000
        NUMBER_OF_FRAMES: 4692
        NUMBER_OF_BYTES : 2444012
        _STATISTICS_WRITING_APP: mkvpropedit v66.0.0 ('Josie') 64-bit
        _STATISTICS_WRITING_DATE_UTC: 2025-06-27 08:37:14
        _STATISTICS_TAGS: BPS DURATION NUMBER_OF_FRAMES NUMBER_OF_BYTES
Input #1, matroska,webm, from 'G:\Аниме\[Топ]\Проделки Сакуры\Bonus\Menu\Sakura Trick TV Menu 2.mkv':
  Metadata:
    title           : Sakura Trick TV Menu 2
    encoder         : libebml v1.3.6 + libmatroska v1.4.9
    creation_time   : 2018-07-04T17:49:36.000000Z
  Duration: 00:01:40.06, start: 0.000000, bitrate: 1178 kb/s
  Stream #1:0(jpn): Video: h264 (High 10), yuv420p10le(tv, bt709/unknown/unknown, progressive), 1920x1080 [SAR 1:1 DAR 16:9], 23.98 fps, 23.98 tbr, 1k tbn (default)
      Metadata:
        title           : [VCB & Hakugetsu & DMG]
  Stream #1:1(jpn): Audio: flac, 48000 Hz, stereo, s16 (default)
      Metadata:
        title           : [Original]
Stream mapping:
  Stream #0:0 (hevc) -> settb:default
  Stream #1:0 (h264) -> settb:default
  psnr:default -> Stream #0:0 (wrapped_avframe)
  Stream #0:1 -> #0:1 (aac (native) -> pcm_s16le (native))
Output #0, null, to 'pipe:':
  Metadata:
    title           : Sakura Trick TV Menu 2
    encoder         : Lavf61.7.100
  Stream #0:0: Video: wrapped_avframe, yuv420p10le(tv, bt709, progressive), 1920x1080 [SAR 1:1 DAR 16:9], q=2-31, 200 kb/s, 23.98 fps, 23.98 tbn
      Metadata:
        encoder         : Lavc61.19.100 wrapped_avframe
  Stream #0:1(jpn): Audio: pcm_s16le, 48000 Hz, stereo, s16, 1536 kb/s (default)
      Metadata:
        title           : [Original]
        _STATISTICS_TAGS: BPS DURATION NUMBER_OF_FRAMES NUMBER_OF_BYTES
        BPS             : 195374
        DURATION        : 00:01:40.075000000
        NUMBER_OF_FRAMES: 4692
        NUMBER_OF_BYTES : 2444012
        _STATISTICS_WRITING_APP: mkvpropedit v66.0.0 ('Josie') 64-bit
        _STATISTICS_WRITING_DATE_UTC: 2025-06-27 08:37:14
        encoder         : Lavc61.19.100 pcm_s16le
frame=  189 fps=0.0 q=-0.0 size=N/A time=00:00:07.88 bitrate=N/A speed=15.5x    frame=  491 fps=475 q=-0.0 size=N/A time=00:00:20.47 bitrate=N/A speed=19.8x    frame=  776 fps=502 q=-0.0 size=N/A time=00:00:32.36 bitrate=N/A speed=20.9x    frame= 1080 fps=521 q=-0.0 size=N/A time=00:00:45.04 bitrate=N/A speed=21.7x    frame= 1358 fps=523 q=-0.0 size=N/A time=00:00:56.63 bitrate=N/A speed=21.8x    frame= 1653 fps=532 q=-0.0 size=N/A time=00:01:08.94 bitrate=N/A speed=22.2x    frame= 1942 fps=537 q=-0.0 size=N/A time=00:01:20.99 bitrate=N/A speed=22.4x    frame= 2241 fps=541 q=-0.0 size=N/A time=00:01:33.46 bitrate=N/A speed=22.5x    [Parsed_psnr_10 @ 000001dfd8864c80] PSNR y:47.001643 u:49.509447 v:47.752043 average:47.457088 min:44.458543 max:inf
[out#0/null @ 000001dfd8994a00] video:1031KiB audio:18768KiB subtitle:0KiB other streams:0KiB global headers:0KiB muxing overhead: unknown
frame= 2399 fps=544 q=-0.0 Lsize=N/A time=00:01:40.05 bitrate=N/A speed=22.7x    
